<?xml version="1.0" encoding="utf-8"?>
<!-- Generator: Adobe Illustrator 24.1.1, SVG Export Plug-In . SVG Version: 6.00 Build 0)  -->
<svg version="1.1" id="Capa_1" xmlns="http://www.w3.org/2000/svg" xmlns:xlink="http://www.w3.org/1999/xlink" x="0px" y="0px"
	 viewBox="0 0 1200 1200" enable-background="new 0 0 1200 1200" xml:space="preserve">
<g>
	<path fill="#7B2425" d="M368.5,684.6c-8.9-17.2-23.3-27.4-40.4-34.6c-27-11.3-51.9-6.3-71.7,15.6c-21.4,23.6-29.8,52.7-33.9,83.4
		c-0.3,2.5-0.5,5.1-0.9,9.7c-50.8-51.6-94.3-105.5-121.6-171.1c-20.6-49.6-29.8-100.8-25.1-154.4c10-112.8,93.3-222.2,214.3-246.7
		c88.4-17.9,162.2,11.6,225.8,71.5c22.2,20.9,42.5,43.9,64.6,66.9c-15.7,16.6-31.1,33.1-46.6,49.3c-22.1,23.1-44.5,45.9-66.6,69
		c-4.8,5-8.9,10.6-12.9,16.3c-24.5,34.2-12.4,66.9,14.9,89.5c48.3,39.9,101,40.4,155.6,13.2c39.4-19.6,74.1-45.6,103.5-78.4
		c6.4-7.1,12.3-8.9,21.7-6.6c42.4,10.5,85.7,15.1,129.3,11.9c17.2-1.3,34-8.1,50.9-12.4c4.4-1.1,8.8-3.2,13.3-3.6
		c3.3-0.2,9,1.1,9.5,2.9c1,3.2,0,8.9-2.3,10.7c-9,7.1-18.3,14.3-28.6,19.2c-39.3,18.7-81.1,20.1-123.5,15.8
		c-3.9-0.4-7.9-1.1-15.8-2.2c70,64.8,137.1,126.9,205,189.9c52.4-58.2,93.1-121.9,104-201.4c10.8-78.5-7.3-148.4-58.7-209.7
		c-78.3-93.3-221.5-108.6-313.7-29.5c-46.3,39.7-87.2,85.5-130.4,128.7c-28.5,28.5-56.6,57.4-84.8,86.2c-3.8,3.9-7.2,8.2-10.7,12.2
		c25.2,28.9,51,35.9,86.3,24.9c32.7-10.2,59.6-29.6,83.7-52.8c20-19.3,38.8-39.9,58.7-59.2c3.9-3.8,11.8-7.6,15.8-6
		c8.1,3.1,10.3,11.4,6.7,19.9c-2.2,5.1-4.6,10.2-7.8,14.6c-34.9,47-78.3,83.7-132.1,107.4c-48.8,21.4-91.9,9.3-125.3-22.8
		c-15.7-15.1-17-34.9-2.1-50.9c36.7-39.3,74.2-77.7,111.7-116.3c30.4-31.2,61.3-61.9,91.7-93.1c89.3-91.5,237.8-101.2,337.9-21.5
		c59.1,47,95.1,108.3,105.7,182.8c11.8,83-11.1,158.9-55.6,228.3c-18.4,28.7-41.5,54.4-62.2,81.6c-3.8,5-7.4,10.6-9.4,16.5
		c-10.4,30.5-46.2,45.3-73.4,27.7c-19.7-12.7-37-29.1-55.1-44.2c-44.8-37.3-89.4-74.9-134.3-112.2c-8-6.6-8.3-6.3-20.1-0.3
		c6.5,8.1,11.7,16.9,19,23.4c38.8,34.4,78.3,68.1,117.1,102.5c21.1,18.8,41.2,38.6,61.9,57.9c13.2,12.2,14.9,26.9,9.8,43.1
		c-5.1,16.1-17.1,25.4-32.8,28.5c-16,3.2-30.3-0.8-43.2-12.8c-45.5-42.1-91.5-83.7-138.1-124.6c-17.4-15.2-36.9-28-55.8-41.3
		c-2.9-2-7.7-1.3-11.7-1.8c0.7,4,0.3,8.6,2.2,11.8c17.6,29.1,47.7,44.6,72.2,66.4c38.4,34.1,76.5,68.6,114.2,103.5
		c16.1,14.9,16.3,37.4,2.4,53.5c-14.6,16.9-38.8,20-56,5.9c-37.6-30.8-74.7-62.2-111.6-93.8c-3.3-2.8-5.3-8.5-5.7-13
		c-3.1-35.5-33.4-64.5-69.3-64.3c-11,0.1-15.5-3-19.6-13.6c-11.3-29.5-47-44.3-80-35.6c-4.2,1.1-11.4,0.4-13.8-2.4
		C440.9,674.5,420.3,668.4,368.5,684.6z"/>
	<path fill="#7B2425" d="M554.9,789.8c49.3-17.6,87.5,22.8,78.5,72.2c7.2,2.3,15.4,2.8,20.8,7c32.4,25.3,64.4,51.2,96,77.4
		c8.6,7.1,7.1,16.9,4,26.9c-3.9,12.4-11.9,19.8-24.2,22c-6.7,1.2-14.8,2.5-20.6,0c-13.8-5.9-23.8-0.3-35.6,6
		c-42.7,22.5-85.3,25.3-126.8-4c-3.1-2.2-8.8-3.5-12.1-2.2c-22,8.8-43.1,6.1-62.3-6.1c-13.9-8.8-24.6-23.1-39-30.5
		c-13.6-7-31-6.2-45.3-12.2c-32.8-13.8-54.5-39-66.1-72.7c-2.5-7.1-5.5-10.2-14.1-11.5c-31.8-4.8-49.6-27.1-60.6-54.9
		c-14.8-37.5-10.1-74.4,7.9-109.8c8.9-17.5,20.3-32.4,42.8-32.3c24,0.1,39.3,14,51.3,32.7c3.9,6.1,6.1,13.2,9.8,21.5
		c19.1-15.1,40.2-22.1,63.6-17.6c18.6,3.6,35.7,26.4,38.3,48.6C519,726.5,546.6,738,554.9,789.8z M665.1,973.2
		c-20.7-17.5-41.3-35-60.7-51.4c-8.5,4.1-15.9,7.6-23.3,11.2c-1-1.3-1.9-2.6-2.9-3.9c2.9-4.3,5.8-8.7,8.8-12.9
		c17.7-24.3,29.4-50.8,22.5-81.3c-5.7-25-26.9-31.6-47.2-16.6c-44.3,32.8-50.1,107-11.8,148.3
		C582.7,1001.4,618.6,1007.2,665.1,973.2z M518.3,973.3c-1.6-3.8-2.3-6.3-3.6-8.6c-20.7-38.1-23.8-76.8-5-116.6
		c8.1-17.1,16.2-34.2,22.7-51.9c4.8-13-3-24.3-12.3-31.3c-5.5-4.1-16.2-3.9-23.8-2.1c-28.2,6.7-42.9,28.4-55.3,52.5
		c-22.5,43.6-17.2,85.2,10.8,123.6C467.2,960,487.8,975.5,518.3,973.3z M415.5,926.8c-10.5-31.1-18.7-60.5-9.2-89.6
		c7.6-23.4,19.4-45.8,31.5-67.4c9.8-17.3-1.2-28.3-8.7-40.2c-6.8-10.7-18.1-6.4-27.9-4c-4.8,1.2-9.5,3.6-13.8,6.2
		c-26.1,16.2-40.5,40.2-44.2,70.2c-4.2,33.8-3.3,67.2,20.4,94.7C376.6,911.6,391.8,924.3,415.5,926.8z M310,837.3
		c8.6-37.1,16.6-71.9,24.8-106.6c4-16.8-21.4-43.7-38.6-40.3c-2.8,0.5-6,2.7-7.8,5c-19.8,25.7-33.4,53.3-24.1,87
		C271.3,808.2,287.9,825.9,310,837.3z"/>
</g>
<image display="none" overflow="visible" width="1024" height="1024" xlink:href="EC535EB3.jpg"  transform="matrix(1 0 0 1 -1252.7142 -122.5714)">
</image>
</svg>
